<?xml version="1.0" encoding="utf-8"?>
<!-- Generator: Adobe Illustrator 19.0.1, SVG Export Plug-In . SVG Version: 6.00 Build 0)  -->
<svg version="1.1" id="Layer_1"
  xmlns="http://www.w3.org/2000/svg"
  xmlns:xlink="http://www.w3.org/1999/xlink" x="0px" y="0px" viewBox="0 0 201.7 40" style="enable-background:new 0 0 201.7 40;" xml:space="preserve">
  <style type="text/css">
	.st0{clip-path:url(#SVGID_2_);}
	.st1{fill:url(#SVGID_3_);}
	.st2{fill:url(#White_Radial_gradient_3_);}
	.st3{clip-path:url(#White_Radial_gradient_4_);}
	.st4{opacity:0.26;fill:#FFFFFF;}
	.st5{opacity:0.26;}
	.st6{fill:#A1CEE6;}
	.st7{opacity:0.1;}
	.st8{opacity:0.6;}
	.st9{fill:#FFFFFF;}
	.st10{fill-rule:evenodd;clip-rule:evenodd;fill:#F7971D;}
	.st11{fill-rule:evenodd;clip-rule:evenodd;fill:#231F20;}
	.st12{fill:#231F20;}
  </style>
  <g>
    <defs>
      <circle id="SVGID_1_" cx="20.8" cy="20" r="20"/>
    </defs>
    <clipPath id="SVGID_2_">
      <use xlink:href="#SVGID_1_" style="overflow:visible;"/>
    </clipPath>
    <g class="st0">
      <g>
        <linearGradient id="SVGID_3_" gradientUnits="userSpaceOnUse" x1="20.9231" y1="40.7537" x2="20.9231" y2="-2.1973">
          <stop offset="0" style="stop-color:#29B386"/>
          <stop offset="0.2716" style="stop-color:#2BAE8C"/>
          <stop offset="0.6316" style="stop-color:#30A09D"/>
          <stop offset="1" style="stop-color:#378BB5"/>
        </linearGradient>
        <rect x="-0.6" y="-2.2" class="st1" width="43" height="43"/>
        <radialGradient id="White_Radial_gradient_3_" cx="20.7528" cy="19.3337" r="21.4755" gradientUnits="userSpaceOnUse">
          <stop offset="0" style="stop-color:#FFFFFF;stop-opacity:0.38"/>
          <stop offset="1" style="stop-color:#FFFFFF;stop-opacity:0"/>
        </radialGradient>
        <rect id="White_Radial_gradient_1_" x="-0.7" y="-2.1" class="st2" width="43" height="43"/>
      </g>
      <g>
        <g>
          <defs>
            <path id="SVGID_4_" d="M7.5-2.2h27.1c4.4,0,7.9,3.5,7.9,7.9v27.1c0,4.4-3.5,7.9-7.9,7.9H7.5c-4.4,0-7.9-3.5-7.9-7.9V5.7
						C-0.4,1.3,3.2-2.2,7.5-2.2L7.5-2.2z"/>
          </defs>
          <clipPath id="SVGID_5_">
            <use xlink:href="#SVGID_4_" style="overflow:visible;"/>
          </clipPath>
        </g>
      </g>
    </g>
    <g class="st0">
      <defs>
        <rect id="White_Radial_gradient_2_" x="-0.6" y="-2.2" width="43" height="43"/>
      </defs>
      <clipPath id="White_Radial_gradient_4_">
        <use xlink:href="#White_Radial_gradient_2_" style="overflow:visible;"/>
      </clipPath>
      <g class="st3">
        <path class="st4" d="M30.2,2.2c-0.3,0.4-7,9-7,9L23,9.6c-0.1-0.9-0.6-4.9-0.8-6.5c-1.1,0.1-9.1,1-10.3,1.2
				C12.2,5.6,15.1,18,15.1,18l-0.3,0.3c0,0-18,18.1-20.7,20.8c3.2-0.6,14.2-2.5,14.6-2.6C9.1,36,17.6,26,17.6,26s1.4,7.4,1.6,8.5
				c1.1-0.2,8.7-1.6,9.8-1.8c-0.2-1.2-2.8-14.2-2.8-14.2s15.6-15.6,18-18C41.2,0.9,30.7,2.1,30.2,2.2z"/>
        <g class="st5">
          <path class="st6" d="M23.7,7.7l0.2,1.6c0,0,0.5-0.6,1.1-1.5c-0.2-1.5-0.2-1.9-0.3-3.2c-0.2,0-0.7,0.1-1.3,0.2
					C23.6,6.6,23.6,6.9,23.7,7.7z"/>
          <path class="st6" d="M17.3,28.1c0,0-7.2,8.6-7.5,8.9c-0.3,0.1-7.3,1.3-11.8,2.1c-0.6,0.6-1.1,1.1-1.4,1.4
					c3.2-0.6,14.2-2.5,14.6-2.6c0.2-0.3,4.1-5,6.4-7.7C17.5,29,17.3,28.1,17.3,28.1z"/>
          <path class="st6" d="M46.7,2.1C46,2.1,45.1,2.2,44,2.4c-4.4,4.4-16.8,16.8-16.8,16.8s2.6,13,2.8,14.2c-0.9,0.2-6,1.1-8.6,1.5
					c0.1,0.5,0.2,0.9,0.2,1.1c1.1-0.2,8.7-1.6,9.8-1.8C31.2,33.1,28.7,20,28.7,20S44.3,4.4,46.7,2.1z"/>
        </g>
        <g class="st7">
          <path d="M23,9.6l0.2,1.6c0,0,0,0,0.1-0.1L23,9.6c0-0.8-0.5-4.8-0.7-6.4c0,0-0.1,0-0.1,0C22.5,4.9,22.9,8.7,23,9.6z"/>
          <path d="M44.3,0.7c-0.1,0-0.1,0-0.2,0c-2.8,2.8-17.9,17.8-17.9,17.8s2.6,13,2.8,14.2c-1.1,0.2-8.4,1.5-9.7,1.7c0,0,0,0.1,0,0.1
					c1.1-0.2,8.7-1.6,9.8-1.8c-0.2-1.2-2.8-14.2-2.8-14.2S41.9,3,44.3,0.7z"/>
          <path d="M17.6,26c0,0-8.5,10-8.8,10.4c-0.4,0.1-10.9,2-14.4,2.6c-0.1,0.1-0.1,0.1-0.1,0.1c3.2-0.6,14.2-2.5,14.6-2.6
					c0.3-0.3,7.9-9.4,8.7-10.3C17.6,26.1,17.6,26,17.6,26z"/>
        </g>
        <g class="st7">
          <path d="M24.8,4.7C24.8,4.7,24.8,4.7,24.8,4.7c0.1,1.3,0,1.7,0.2,3.1C24.5,8.5,24.1,9,24,9.2l0,0.2c0,0,0.5-0.6,1.1-1.5
					C25,6.4,25,6,24.8,4.7z"/>
          <path d="M17.4,28.1C17.4,28.1,17.4,28.2,17.4,28.1c0,0.4,0.1,1.1,0.3,2.1c-2.3,2.7-6.2,7.4-6.4,7.7c-0.4,0.1-11,2-14.4,2.6
					c0,0-0.1,0.1-0.1,0.1C0,40,11,38,11.4,38c0.2-0.3,4.1-5,6.4-7.7C17.6,29,17.4,28.1,17.4,28.1z"/>
          <path d="M46.8,2.1c-0.1,0-0.1,0-0.2,0C44,4.8,28.7,20,28.7,20s2.6,13,2.8,14.2c-1.1,0.2-8.4,1.5-9.7,1.7c0,0,0,0.1,0,0.1
					c1.1-0.2,8.7-1.6,9.8-1.8c-0.2-1.2-2.8-14.2-2.8-14.2S44.4,4.5,46.8,2.1z"/>
        </g>
        <g class="st8">
          <g>
            <path class="st9" d="M30.3,2.3c-0.3,0.4-7,9-7,9l-0.2-1.6c-0.1-0.9-0.6-4.9-0.8-6.5c-1.1,0.1-9.1,1-10.3,1.2
						c0.3,1.3,3.2,13.7,3.2,13.7l-0.3,0.3c0,0-18,18.1-20.7,20.8c3.2-0.6,14.2-2.5,14.6-2.6c0.3-0.4,8.8-10.4,8.8-10.4
						s1.4,7.4,1.6,8.5c1.1-0.2,8.7-1.6,9.8-1.8c-0.2-1.2-2.8-14.2-2.8-14.2s15.6-15.6,18-18C41.3,1,30.7,2.2,30.3,2.3z"/>
          </g>
        </g>
      </g>
    </g>
  </g>
  <g>
    <g>
      <g>
        <g>
          <defs>
            <path id="SVGID_6_" d="M52.9,3.8c-1,0.4-1.9,1-2.7,1.8l0,0c-0.7,0.8-1.3,1.7-1.7,2.6l0,0c-0.4,1-0.6,2-0.6,3.1l0,0
						c0,2.3,0.8,4.3,2.5,5.8l0,0c0.8,0.7,1.7,1.3,2.7,1.7l0,0c1,0.4,2,0.6,3.1,0.6l0,0c0.6,0,1.2,0,1.8-0.1l0,0
						c0.5-0.1,1.1-0.3,1.7-0.5l0,0v-4.8c-0.4,0.5-0.9,0.9-1.5,1.2l0,0c-0.6,0.2-1.3,0.4-1.9,0.4l0,0c-1.2,0-2.2-0.4-3-1.1l0,0
						c-0.7-0.8-1.1-1.8-1.1-3l0,0c0-1.2,0.3-2.2,1.1-3.1l0,0c0.7-0.8,1.7-1.2,3-1.2l0,0c0.7,0,1.4,0.1,2,0.4l0,0
						c0.6,0.2,1.1,0.7,1.5,1.2l0,0V3.9c-1.1-0.5-2.3-0.8-3.6-0.8l0,0C54.9,3.1,53.9,3.3,52.9,3.8"/>
          </defs>
          <use xlink:href="#SVGID_6_" style="overflow:visible;fill:#231F20;"/>
          <clipPath id="SVGID_7_">
            <use xlink:href="#SVGID_6_" style="overflow:visible;"/>
          </clipPath>
        </g>
        <g>
          <defs>
            <path id="SVGID_8_" d="M67.7,14.9c-0.6-0.4-1.2-0.9-1.6-1.6l0,0c-0.4-0.7-0.6-1.5-0.6-2.4l0,0c0-0.7,0.2-1.4,0.6-2l0,0
						c0.4-0.6,0.9-1.1,1.6-1.5l0,0c0.6-0.4,1.4-0.6,2.2-0.6l0,0c0.8,0,1.6,0.2,2.2,0.6l0,0c0.6,0.4,1.2,0.9,1.6,1.5l0,0
						c0.4,0.6,0.5,1.3,0.5,2l0,0c0,0.9-0.1,1.7-0.5,2.4l0,0c-0.4,0.7-1,1.2-1.6,1.6l0,0c-0.6,0.4-1.4,0.6-2.2,0.6l0,0
						C69,15.5,68.3,15.3,67.7,14.9 M65.7,4c-1.3,0.7-2.3,1.6-3.1,2.8l0,0c-0.8,1.2-1.2,2.6-1.2,4.1l0,0c0,1.7,0.4,3.1,1.1,4.4l0,0
						c0.7,1.3,1.7,2.2,3,3l0,0c1.3,0.7,2.8,1.1,4.4,1.1l0,0c1.7,0,3.1-0.4,4.4-1.1l0,0c1.3-0.7,2.3-1.7,3.1-3l0,0
						c0.7-1.3,1.1-2.8,1.1-4.4l0,0c0-1.6-0.5-3-1.3-4.1l0,0C76.3,5.6,75.4,4.7,74,4l0,0c-1.3-0.7-2.7-1-4.2-1l0,0
						C68.4,3,67,3.3,65.7,4"/>
          </defs>
          <use xlink:href="#SVGID_8_" style="overflow:visible;fill:#231F20;"/>
          <clipPath id="SVGID_9_">
            <use xlink:href="#SVGID_8_" style="overflow:visible;"/>
          </clipPath>
        </g>
        <g>
          <defs>
            <polygon id="SVGID_10_" points="92.3,3.5 89,11.7 85.9,3.5 81.9,3.5 79.3,18.9 83.3,18.9 84.6,10 88.1,18.9 89.7,18.9 93.4,10
						93.5,10 94.6,18.9 98.6,18.9 96.2,3.5 					"/>
          </defs>
          <use xlink:href="#SVGID_10_" style="overflow:visible;fill:#231F20;"/>
          <clipPath id="SVGID_11_">
            <use xlink:href="#SVGID_10_" style="overflow:visible;"/>
          </clipPath>
        </g>
        <g>
          <defs>
            <rect id="SVGID_12_" x="100.3" y="3.5" width="4" height="15.3"/>
          </defs>
          <use xlink:href="#SVGID_12_" style="overflow:visible;fill:#231F20;"/>
          <clipPath id="SVGID_13_">
            <use xlink:href="#SVGID_12_" style="overflow:visible;"/>
          </clipPath>
        </g>
        <g>
          <defs>
            <polygon id="SVGID_14_" points="118.9,0.1 115.6,5.8 112.2,0.1 105.2,0.1 112.2,10.4 103.6,22.1 110.5,22.1 115.6,14.9
						120.2,22.1 127,22.1 118.9,10.4 126,0.1 					"/>
          </defs>
          <use xlink:href="#SVGID_14_" style="overflow:visible;fill:#231F20;"/>
          <clipPath id="SVGID_15_">
            <use xlink:href="#SVGID_14_" style="overflow:visible;"/>
          </clipPath>
        </g>
        <g>
          <defs>
            <path id="SVGID_16_" d="M130.1,14.9c-0.6-0.4-1.2-0.9-1.5-1.6l0,0c-0.4-0.7-0.6-1.5-0.6-2.4l0,0c0-0.7,0.2-1.4,0.6-2l0,0
						c0.3-0.6,0.9-1.1,1.5-1.5l0,0c0.7-0.4,1.4-0.6,2.2-0.6l0,0c0.8,0,1.5,0.2,2.1,0.6l0,0c0.7,0.4,1.2,0.9,1.6,1.5l0,0
						c0.4,0.6,0.6,1.3,0.6,2l0,0c0,0.9-0.2,1.7-0.6,2.4l0,0c-0.4,0.7-0.9,1.2-1.6,1.6l0,0c-0.6,0.4-1.4,0.6-2.1,0.6l0,0
						C131.5,15.5,130.8,15.3,130.1,14.9 M128.1,4c-1.3,0.7-2.3,1.6-3.1,2.8l0,0c-0.8,1.2-1.2,2.6-1.3,4.1l0,0
						c0.1,1.7,0.4,3.1,1.2,4.4l0,0c0.7,1.3,1.7,2.2,3,3l0,0c1.3,0.7,2.7,1.1,4.4,1.1l0,0c1.7,0,3.1-0.4,4.4-1.1l0,0
						c1.3-0.7,2.3-1.7,3-3l0,0c0.7-1.3,1.1-2.8,1.1-4.4l0,0c0-1.6-0.4-3-1.2-4.1l0,0c-0.8-1.2-1.8-2.1-3.2-2.8l0,0
						c-1.3-0.7-2.7-1-4.1-1l0,0C130.8,3,129.4,3.3,128.1,4"/>
          </defs>
          <use xlink:href="#SVGID_16_" style="overflow:visible;fill:#231F20;"/>
          <clipPath id="SVGID_17_">
            <use xlink:href="#SVGID_16_" style="overflow:visible;"/>
          </clipPath>
        </g>
        <g>
          <defs>
            <polygon id="SVGID_18_" points="142.7,3.5 142.7,18.9 151.5,18.9 151.5,15.5 146.6,15.5 146.6,3.5 					"/>
          </defs>
          <use xlink:href="#SVGID_18_" style="overflow:visible;fill:#231F20;"/>
          <clipPath id="SVGID_19_">
            <use xlink:href="#SVGID_18_" style="overflow:visible;"/>
          </clipPath>
        </g>
        <g>
          <defs>
            <path id="SVGID_20_" d="M158.3,14.9c-0.6-0.4-1.2-0.9-1.5-1.6l0,0c-0.4-0.7-0.6-1.5-0.6-2.4l0,0c0-0.7,0.2-1.4,0.6-2l0,0
						c0.3-0.6,0.9-1.1,1.5-1.5l0,0c0.7-0.4,1.4-0.6,2.2-0.6l0,0c0.8,0,1.5,0.2,2.1,0.6l0,0c0.7,0.4,1.2,0.9,1.6,1.5l0,0
						c0.4,0.6,0.6,1.3,0.6,2l0,0c0,0.9-0.2,1.7-0.6,2.4l0,0c-0.4,0.7-0.9,1.2-1.6,1.6l0,0c-0.6,0.4-1.4,0.6-2.1,0.6l0,0
						C159.7,15.5,158.9,15.3,158.3,14.9 M156.3,4c-1.3,0.7-2.3,1.6-3.1,2.8l0,0c-0.8,1.2-1.2,2.6-1.3,4.1l0,0c0,1.7,0.4,3.1,1.2,4.4
						l0,0c0.7,1.3,1.7,2.2,3,3l0,0c1.3,0.7,2.7,1.1,4.4,1.1l0,0c1.7,0,3.1-0.4,4.4-1.1l0,0c1.3-0.7,2.3-1.7,3-3l0,0
						c0.7-1.3,1.1-2.8,1.1-4.4l0,0c0-1.6-0.4-3-1.2-4.1l0,0c-0.8-1.2-1.8-2.1-3.2-2.8l0,0c-1.3-0.7-2.7-1-4.1-1l0,0
						C159,3,157.6,3.3,156.3,4"/>
          </defs>
          <use xlink:href="#SVGID_20_" style="overflow:visible;fill:#231F20;"/>
          <clipPath id="SVGID_21_">
            <use xlink:href="#SVGID_20_" style="overflow:visible;"/>
          </clipPath>
        </g>
        <g>
          <defs>
            <path id="SVGID_22_" d="M174,4c-1.3,0.7-2.2,1.7-2.9,2.9l0,0c-0.7,1.2-1,2.7-1.1,4.3l0,0c0,1.7,0.3,3.1,1,4.3l0,0
						c0.7,1.2,1.7,2.1,2.9,2.9l0,0c1.2,0.6,2.7,1,4.3,1l0,0c1.3,0,2.5-0.2,3.6-0.7l0,0c1.1-0.5,2-1.3,2.7-2.3l0,0
						c0.7-0.9,1.1-1.9,1.3-2.9l0,0c0.2-1,0.3-2,0.3-3.1l0,0h-7.9v3.1h3.3c-0.1,0.9-0.5,1.6-1.1,2l0,0c-0.5,0.4-1.3,0.7-2.2,0.7l0,0
						c-0.9,0-1.6-0.2-2.2-0.7l0,0c-0.6-0.4-1.1-1.1-1.4-1.7l0,0c-0.3-0.8-0.5-1.6-0.5-2.3l0,0c0-0.8,0.1-1.6,0.4-2.3l0,0
						c0.3-0.7,0.8-1.3,1.4-1.8l0,0c0.6-0.5,1.3-0.7,2.2-0.7l0,0c0.8,0,1.5,0.2,2.1,0.7l0,0c0.5,0.4,1,1,1.2,1.7l0,0l3.8-1.6
						c-0.6-1.5-1.6-2.6-2.8-3.3l0,0C181.4,3.3,180,3,178.4,3l0,0C176.7,3,175.3,3.3,174,4"/>
          </defs>
          <use xlink:href="#SVGID_22_" style="overflow:visible;fill:#231F20;"/>
          <clipPath id="SVGID_23_">
            <use xlink:href="#SVGID_22_" style="overflow:visible;"/>
          </clipPath>
        </g>
        <g>
          <defs>
            <polygon id="SVGID_24_" points="196.9,3.5 194,7.6 191.1,3.5 186.3,3.5 192,11.5 192,18.9 196,18.9 196,11.5 201.7,3.5
						"/>
          </defs>
          <use xlink:href="#SVGID_24_" style="overflow:visible;fill:#231F20;"/>
          <clipPath id="SVGID_25_">
            <use xlink:href="#SVGID_24_" style="overflow:visible;"/>
          </clipPath>
        </g>
      </g>
    </g>
  </g>
  <g>
    <g>
      <g>
        <path class="st10" d="M123.3,36.9c-2.5,1.9-6.2,2.9-9.4,2.9c-4.4,0-8.4-1.6-11.5-4.4c-0.2-0.2,0-0.5,0.3-0.3
				c3.3,1.9,7.3,3,11.5,3c2.8,0,5.9-0.6,8.8-1.8C123.3,36.2,123.7,36.6,123.3,36.9z"/>
        <path class="st10" d="M124.3,35.7c-0.3-0.4-2.1-0.2-3-0.1c-0.2,0-0.3-0.2-0.1-0.3c1.5-1,3.8-0.7,4.1-0.4c0.3,0.3-0.1,2.7-1.4,3.9
				c-0.2,0.2-0.4,0.1-0.3-0.1C124,37.9,124.6,36.2,124.3,35.7z"/>
      </g>
      <g>
        <path class="st11" d="M121.4,28.1v-1c0-0.2,0.1-0.3,0.3-0.3l4.4,0c0.1,0,0.3,0.1,0.3,0.3l0,0.9c0,0.1-0.1,0.3-0.3,0.6l-2.3,3.3
				c0.9,0,1.8,0.1,2.5,0.5c0.2,0.1,0.2,0.2,0.2,0.4v1.1c0,0.1-0.2,0.3-0.3,0.2c-1.4-0.7-3.2-0.8-4.7,0c-0.2,0.1-0.3-0.1-0.3-0.2v-1
				c0-0.2,0-0.4,0.2-0.7l2.7-3.8l-2.3,0C121.5,28.3,121.4,28.2,121.4,28.1z"/>
        <path class="st11" d="M105.2,34.3h-1.4c-0.1,0-0.2-0.1-0.2-0.2l0-6.9c0-0.1,0.1-0.2,0.3-0.2l1.3,0c0.1,0,0.2,0.1,0.2,0.2V28h0
				c0.3-0.9,0.9-1.3,1.8-1.3c0.8,0,1.4,0.4,1.8,1.3c0.3-0.9,1.1-1.3,1.9-1.3c0.6,0,1.2,0.2,1.6,0.8c0.4,0.6,0.3,1.4,0.3,2.2l0,4.4
				c0,0.1-0.1,0.2-0.3,0.2h-1.4c-0.1,0-0.2-0.1-0.2-0.2l0-3.7c0-0.3,0-1,0-1.3c-0.1-0.5-0.4-0.6-0.8-0.6c-0.3,0-0.7,0.2-0.8,0.6
				c-0.1,0.4-0.1,0.9-0.1,1.3V34c0,0.1-0.1,0.2-0.3,0.2h-1.4c-0.1,0-0.2-0.1-0.2-0.2l0-3.7c0-0.8,0.1-1.9-0.8-1.9
				c-1,0-0.9,1.1-0.9,1.9l0,3.7C105.4,34.2,105.3,34.3,105.2,34.3z"/>
        <path class="st11" d="M130.2,26.7c2,0,3.1,1.7,3.1,3.9c0,2.1-1.2,3.8-3.1,3.8c-2,0-3-1.7-3-3.9C127.1,28.4,128.2,26.7,130.2,26.7
				z M130.2,28.1c-1,0-1.1,1.4-1.1,2.2c0,0.8,0,2.7,1,2.7c1,0,1.1-1.5,1.1-2.4c0-0.6,0-1.3-0.2-1.8
				C130.9,28.3,130.6,28.1,130.2,28.1z"/>
        <path class="st11" d="M135.9,34.3h-1.3c-0.1,0-0.2-0.1-0.2-0.2l0-6.9c0-0.1,0.1-0.2,0.3-0.2l1.3,0c0.1,0,0.2,0.1,0.2,0.2v1.1h0
				c0.4-0.9,0.9-1.4,1.8-1.4c0.6,0,1.2,0.2,1.6,0.8c0.4,0.6,0.4,1.5,0.4,2.2v4.4c0,0.1-0.1,0.2-0.3,0.2h-1.4c-0.1,0-0.2-0.1-0.2-0.2
				v-3.8c0-0.8,0.1-1.9-0.8-1.9c-0.3,0-0.6,0.2-0.8,0.6c-0.2,0.4-0.2,0.8-0.2,1.3V34C136.1,34.2,136,34.3,135.9,34.3z"/>
        <path class="st11" d="M117.9,31c0,0.5,0,1-0.3,1.4c-0.2,0.4-0.6,0.6-0.9,0.6c-0.5,0-0.8-0.4-0.8-1c0-1.2,1-1.4,2-1.4V31z
				 M119.2,34.3c-0.1,0.1-0.2,0.1-0.3,0c-0.4-0.4-0.5-0.5-0.8-0.9c-0.7,0.8-1.3,1-2.2,1c-1.1,0-2-0.7-2-2.1c0-1.1,0.6-1.8,1.4-2.2
				c0.7-0.3,1.8-0.4,2.5-0.5v-0.2c0-0.3,0-0.7-0.2-1c-0.2-0.2-0.5-0.4-0.8-0.4c-0.5,0-1,0.3-1.1,0.8c0,0.1-0.1,0.2-0.2,0.2l-1.3-0.1
				c-0.1,0-0.2-0.1-0.2-0.3c0.3-1.6,1.7-2.1,3-2.1c0.7,0,1.5,0.2,2,0.7c0.7,0.6,0.6,1.4,0.6,2.3v2.1c0,0.6,0.3,0.9,0.5,1.3
				c0.1,0.1,0.1,0.3,0,0.4C120,33.6,119.5,34,119.2,34.3L119.2,34.3z"/>
        <path class="st11" d="M100.1,31c0,0.5,0,1-0.3,1.4c-0.2,0.4-0.6,0.6-0.9,0.6c-0.5,0-0.8-0.4-0.8-1c0-1.2,1-1.4,2-1.4V31z
				 M101.5,34.3c-0.1,0.1-0.2,0.1-0.3,0c-0.4-0.4-0.5-0.5-0.8-0.9c-0.7,0.8-1.3,1-2.2,1c-1.1,0-2-0.7-2-2.1c0-1.1,0.6-1.8,1.4-2.2
				c0.7-0.3,1.8-0.4,2.5-0.5v-0.2c0-0.3,0-0.7-0.2-1c-0.2-0.2-0.5-0.4-0.8-0.4c-0.5,0-1,0.3-1.1,0.8c0,0.1-0.1,0.2-0.2,0.2L96.6,29
				c-0.1,0-0.2-0.1-0.2-0.3c0.3-1.6,1.7-2.1,3-2.1c0.7,0,1.5,0.2,2,0.7c0.7,0.6,0.6,1.4,0.6,2.3v2.1c0,0.6,0.3,0.9,0.5,1.3
				c0.1,0.1,0.1,0.3,0,0.4C102.3,33.6,101.8,34,101.5,34.3L101.5,34.3z"/>
      </g>
    </g>
    <g>
      <path class="st12" d="M84.2,32c0,0.9,0,1.1,0.2,1.5c0.1,0.2,0.3,0.5,0.3,0.5c0,0.1-0.1,0.1-0.1,0.1l-0.6,0.4c-0.1,0-0.1,0-0.1,0
			c-0.2,0-0.5-0.8-0.6-1c-0.2,0.2-0.9,1-2.1,1c-1.2,0-1.9-0.8-1.9-2.1c0-2.5,3-2.5,3.9-2.6v-0.5c0-0.9-0.3-1.3-1.3-1.3
			c-1,0-1.7,0.5-1.8,0.5c0,0-0.1,0-0.1-0.1l-0.2-0.5c0-0.1,0-0.1,0-0.2c0-0.3,1.4-0.7,2.3-0.7c1.7,0,2.3,0.8,2.3,2.1V32z M83,30.8
			c-0.6,0-2.8,0-2.8,1.6c0,0.6,0.3,1.3,1.1,1.3c0.8,0,1.4-0.7,1.7-0.9V30.8z"/>
      <path class="st12" d="M91.8,34.2c0,0.1-0.1,0.2-0.2,0.2h-0.8c-0.1,0-0.2-0.1-0.2-0.2v-4.9c0-0.6-0.2-1.2-1-1.2
			c-1,0-1.6,0.6-1.9,0.9v5.2c0,0.1-0.1,0.2-0.2,0.2h-0.8c-0.1,0-0.2-0.1-0.2-0.2v-5.1c0-0.5,0-0.6-0.1-0.9c-0.1-0.4-0.2-0.5-0.2-0.6
			c0,0,0-0.1,0.1-0.1l0.7-0.4c0,0,0.1-0.1,0.1-0.1c0.3,0,0.4,0.9,0.5,1c0.5-0.4,1.3-1,2.4-1c1.6,0,1.8,1.2,1.8,2.2V34.2z"/>
      <path class="st12" d="M149.1,33.7c0,0,0,0.1,0,0.1c0,0.2-1.2,0.8-2.3,0.8c-1.8,0-2.8-1.4-2.8-3.5c0-2.5,1.2-4,3-4
			c1,0,2.1,0.7,2.1,0.9c0,0,0,0.1,0,0.1l-0.3,0.6c0,0,0,0.1-0.1,0.1c-0.1,0-0.7-0.8-1.6-0.8c-1.4,0-1.9,1.1-1.9,2.8
			c0,1.3,0.3,2.8,1.7,2.8c1,0,1.7-0.6,1.8-0.6c0,0,0.1,0,0.1,0.1L149.1,33.7z"/>
      <path class="st12" d="M153.2,34.5c-2,0-2.8-1.6-2.8-3.7c0-2,0.9-3.8,3-3.8c2,0,2.9,1.6,2.9,3.7C156.2,32.8,155.3,34.5,153.2,34.5z
			 M155,30.7c0-1.4-0.4-2.8-1.7-2.8c-1.3,0-1.7,1.3-1.7,2.7c0,1.7,0.4,2.9,1.7,2.9C154.6,33.6,155,32.4,155,30.7z"/>
      <path class="st12" d="M158.2,29.1c0-0.3,0-0.7-0.1-1c-0.1-0.3-0.2-0.4-0.2-0.5c0,0,0-0.1,0.1-0.1l0.6-0.4c0,0,0.1-0.1,0.1-0.1
			c0.2,0,0.4,0.8,0.4,0.9c0.4-0.4,1.3-0.9,1.9-0.9c1,0,1.4,0.3,1.6,0.9c0.4-0.3,1.2-0.9,1.9-0.9c1.6,0,1.8,1.2,1.8,2.2v4.9
			c0,0.1-0.1,0.2-0.2,0.2h-0.8c-0.1,0-0.2-0.1-0.2-0.2v-4.9c0-0.6-0.2-1.2-0.9-1.2c-0.7,0-1.2,0.4-1.4,0.6v5.5
			c0,0.1-0.1,0.2-0.2,0.2h-0.8c-0.1,0-0.2-0.1-0.2-0.2v-4.9c0-0.6-0.2-1.2-1-1.2c-0.7,0-1.2,0.4-1.4,0.6v5.5c0,0.1-0.1,0.2-0.2,0.2
			h-0.8c-0.1,0-0.2-0.1-0.2-0.2V29.1z"/>
      <path class="st12" d="M169.3,29.6c0-0.6-0.4-0.9-0.6-1.5c-0.1-0.2-0.3-0.5-0.3-0.5c0-0.1,0.1-0.1,0.1-0.1l1-0.4c0.1,0,0.1,0,0.1,0
			c0.2,0,0.5,0.6,0.5,0.9c0.4-0.3,1.1-0.9,2.2-0.9c1.6,0,2.3,1.8,2.3,3.6c0,2.1-0.8,3.9-2.5,3.9c-0.9,0-1.4-0.3-1.8-0.5v3
			c0,0.1,0,0.2-0.1,0.2l-0.7,0.2c-0.1,0-0.1,0-0.2,0c-0.1,0-0.1-0.1-0.1-0.2V29.6z M170.4,33.1c0.5,0.3,0.9,0.5,1.7,0.5
			c1.3,0,1.4-1.4,1.4-2.9c0-1.2-0.1-2.6-1.3-2.6c-0.8,0-1.4,0.4-1.8,0.7V33.1z"/>
      <path class="st12" d="M181,32c0,0.9,0,1.1,0.2,1.5c0.1,0.2,0.3,0.5,0.3,0.5c0,0.1-0.1,0.1-0.1,0.1l-0.6,0.4c-0.1,0-0.1,0-0.1,0
			c-0.2,0-0.5-0.8-0.6-1c-0.2,0.2-0.9,1-2.1,1c-1.2,0-1.9-0.8-1.9-2.1c0-2.5,3-2.5,3.9-2.6v-0.5c0-0.9-0.3-1.3-1.3-1.3
			c-1,0-1.7,0.5-1.8,0.5c0,0-0.1,0-0.1-0.1l-0.2-0.5c0-0.1,0-0.1,0-0.2c0-0.3,1.4-0.7,2.3-0.7c1.7,0,2.3,0.8,2.3,2.1V32z
			 M179.9,30.8c-0.6,0-2.8,0-2.8,1.6c0,0.6,0.3,1.3,1.1,1.3c0.8,0,1.4-0.7,1.7-0.9V30.8z"/>
      <path class="st12" d="M188.6,34.2c0,0.1-0.1,0.2-0.2,0.2h-0.8c-0.1,0-0.2-0.1-0.2-0.2v-4.9c0-0.6-0.2-1.2-1-1.2
			c-1,0-1.6,0.6-1.9,0.9v5.2c0,0.1-0.1,0.2-0.2,0.2h-0.8c-0.1,0-0.2-0.1-0.2-0.2v-5.1c0-0.5,0-0.6-0.1-0.9c-0.1-0.4-0.2-0.5-0.2-0.6
			c0,0,0-0.1,0.1-0.1l0.7-0.4c0,0,0.1-0.1,0.1-0.1c0.3,0,0.4,0.9,0.5,1c0.5-0.4,1.3-1,2.4-1c1.6,0,1.8,1.2,1.8,2.2V34.2z"/>
      <path class="st12" d="M194.2,33.4c-0.2,0.8-0.6,2-1,2.9c-0.3,0.6-0.9,1.1-1.7,1.1c-0.8,0-1.9-0.5-1.9-0.7c0,0,0-0.1,0-0.1l0.3-0.6
			c0,0,0.1-0.1,0.1-0.1c0.2,0,0.7,0.6,1.4,0.6c0.5,0,0.9-0.5,1.1-1.3l0.3-0.9h-0.5c-0.1,0-0.2,0-0.2-0.1l-2.3-6.4c0-0.1,0-0.1,0-0.2
			c0-0.1,0.1-0.1,0.1-0.1l0.6-0.3c0.1,0,0.1-0.1,0.2-0.1c0.1,0,0.1,0,0.2,0.1l1.9,5.6c0.1,0.4,0.2,0.8,0.3,1.1h0
			c0.1-0.4,0.1-0.7,0.2-1l1.5-5.6c0-0.1,0.1-0.1,0.2-0.1c0.1,0,0.1,0,0.2,0.1l0.6,0.3c0.1,0,0.1,0,0.1,0.1c0,0.1,0,0.1,0,0.2
			L194.2,33.4z"/>
    </g>
  </g>
</svg>
